<svg id="Layer_1" data-name="Layer 1" xmlns="http://www.w3.org/2000/svg" viewBox="0 0 661.8 661.79"><defs><style>.cls-1{fill:#4e4e4e;}</style></defs><path class="cls-1" d="M325.81,397.16c-31,31.39-60.71,61.45-90.4,91.51-.69.7-1.82,1.53-1.8,2.27.69,25.19.22,50.53,3.43,75.4.59,4.56,16.15,10.17,24.84,10.25,89.09.75,178.2.46,267.3.47,4.42,0,9-.49,13.25.39,12.63,2.6,20.11,10.5,20,23.59-.08,12.4-7.36,20-19.21,22.8-4.23,1-8.82.5-13.24.51q-134.4,0-268.78,0c-47.34,0-76.69-29.1-76.73-76.24q-.13-207.5,0-415c0-46.22,29.62-76,75.46-76q208.23-.13,416.46,0c45.14,0,75.22,29.85,75.29,74.69q.22,138.07,0,276.16c0,16.92-9.87,27.67-24.19,27.25-13.89-.39-22.65-10.64-23.06-27-.08-3.44,0-6.89,0-10.33q0-130,0-259.92c0-26.44-6.94-33.54-32.79-33.55q-203.79,0-407.59,0c-25,0-32.25,7.39-32.26,32.64q0,135.13,0,270.25v14.15l3.74,2.21q28.44-29.44,56.9-58.88c5.13-5.3,10.22-10.67,15.63-15.69,12.4-11.5,24.29-11.79,36.43,0,17.28,16.79,34,34.17,52.15,52.51,4.36-4.06,8.28-7.46,11.94-11.12q54.3-54.29,108.57-108.61c16.64-16.61,27.15-16.71,43.79-.13,36.27,36.12,72.69,72.1,108.27,108.89,5.87,6.08,11.11,16.27,10.48,24.06-.56,6.86-8.91,17.13-15.34,18.44-8,1.63-19.91-1.86-26-7.56-29.41-27.61-57.52-56.61-85.82-85.38-4.08-4.14-6.74-9.67-12-17.47-18.77,19.83-33.68,36-49.09,51.74q-36.19,36.88-73,73.2c-15.88,15.76-26.79,15.61-42.81-.35S343.77,415.24,325.81,397.16Z" transform="translate(-184.42 -57.04)"/><path class="cls-1" d="M704.44,577.06c0-23.6-.14-45.17,0-66.73.15-17.39,9.22-27.79,23.69-27.74s23.41,10.61,23.54,27.87c.16,21.56,0,43.11,0,66.59,22.37,0,43.81-.08,65.25,0,18.5.09,29.2,8.86,29.22,23.67s-10.68,23.5-29.31,23.59c-21.07.1-42.14,0-65.15,0,0,22.34.07,43.77,0,65.21-.07,18.45-8.92,29.29-23.63,29.26s-23.55-10.73-23.64-29.32c-.11-21.07,0-42.14,0-65.15-23.31,0-45.73.23-68.15-.07-17.12-.23-28.1-11.73-26.17-26.6,1.64-12.58,11.27-20.41,26.28-20.57C658.43,576.88,680.48,577.06,704.44,577.06Z" transform="translate(-184.42 -57.04)"/><path class="cls-1" d="M397,151.65c38.62-.18,70.66,31.29,71.16,69.9a71.19,71.19,0,0,1-70.68,71.87c-38.64.18-70.79-31.41-71.13-69.88A71.14,71.14,0,0,1,397,151.65Zm.22,47.39a23.51,23.51,0,1,0,23.55,23.07A23.67,23.67,0,0,0,397.19,199Z" transform="translate(-184.42 -57.04)"/></svg>