<svg id="Layer_1" data-name="Layer 1" xmlns="http://www.w3.org/2000/svg" viewBox="0 0 691.08 690.31"><defs><style>.cls-1{fill:#4e4e4e;}</style></defs><path class="cls-1" d="M231.58,419.58c22.49-22.94,44.88-46,67.49-68.8,23.95-24.17,30.95-24.13,55.32.41,14.79,14.91,29.23,30.17,45,46.49,6.14-5.82,10.94-10.17,15.51-14.75q55-55,110-110c18.45-18.43,28.22-18.55,46.59-.47,13.91,13.68,27.88,27.32,41.32,41.45,12.42,13.05,12.75,25.72,1.91,36.51-10.68,10.64-23.59,9.9-36.59-2.29a196.87,196.87,0,0,1-14.09-14.22c-4.36-5-8.12-10.57-13-17-7.26,6.84-11.73,10.83-16,15.06q-55.05,55-110,110c-20,19.92-29.26,20-48.79.21-15.87-16.05-31.46-32.37-48.63-50.07-5.88,5.6-10.61,9.94-15.14,14.47q-38.13,38.12-76.15,76.34c-2.87,2.88-7.68,6.13-7.69,9.21,0,24.53-.6,49.22,2.16,73.51,1.4,12.31,14.34,14.29,25.86,14.25,39-.11,78.07-.24,117.1,0,17.27.11,26.91,9.56,26.73,24.92-.17,13.73-8.65,23.86-22.77,24-44.67.48-89.43,1.65-134-.49-36.59-1.75-64.77-33.07-64.89-70q-.74-224.88,0-449.76a70.56,70.56,0,0,1,70.74-70.85q225-.74,449.92,0c39.59.15,69.83,31.25,70.76,70.93.77,33.35.39,66.74.08,100.11-.15,16.48-9.18,25.65-24.11,25.88-15.44.25-24.81-9.31-25-26.64-.33-30.8,0-61.61-.22-92.42-.12-20.8-8-28.73-29-28.75q-217.26-.15-434.51,0c-20,0-29.33,7.61-29.38,25.32-.26,101.64-.13,203.29-.13,304.94Z" transform="translate(-178.46 -37.27)"/><path class="cls-1" d="M869.54,374.24c-.08,30.09-10,52.43-28.68,71.08Q715.64,570.69,590.29,695.93A27.44,27.44,0,0,1,577.37,703q-58.71,12.33-117.6,23.79C436.52,731.3,421.41,716,426,693.32c7.08-35.18,13.32-70.56,21.6-105.46,2.7-11.34,8.51-23.57,16.59-31.76,80.47-81.49,161.68-162.26,242.76-243.16,26.58-26.51,58.53-35.94,94.57-25.57C836.9,297.56,858.86,322,867.35,358,868.87,364.39,869.14,371.12,869.54,374.24ZM695.27,394.6c-3.06,2.78-6.93,6-10.47,9.52-56.6,56.51-112.12,114.16-170.18,169.14-29.15,27.61-21.29,63.32-33.52,97.68,25.59-4.68,46.81-7.91,67.67-12.72A45.53,45.53,0,0,0,569.54,647q90.26-89.21,179.7-179.21c3.51-3.51,6.67-7.36,9-9.95Zm99.82,25.08c21.07-15.57,29.15-32.94,23.9-53.21-4.66-18-16.64-29.17-34.74-32.85-20.85-4.25-37.86,4.51-50.06,23.68Z" transform="translate(-178.46 -37.27)"/><path class="cls-1" d="M399.64,136c42.1-.34,74.65,31.6,74.85,73.46s-31.94,74.32-73.91,74.42c-41.25.09-73.56-31.63-74-72.7C326.05,169.09,357.86,136.37,399.64,136Zm25.46,73.48c-.24-14.73-10.92-24.72-25.78-24.11-14.15.58-23.61,10.7-23.38,25,.23,14.75,10.93,24.76,25.8,24.12C415.8,233.93,425.34,223.72,425.1,209.52Z" transform="translate(-178.46 -37.27)"/></svg>