<svg width="257" height="44" viewBox="0 0 257 44" fill="none" xmlns="http://www.w3.org/2000/svg">
<path d="M12.1289 43L0.732422 0.0507812H6.5625L13.0957 28.2051C13.7988 31.1543 14.4043 34.084 14.9121 36.9941C16.0059 32.4043 16.6504 29.7578 16.8457 29.0547L25.0195 0.0507812H31.875L38.0273 21.7891C39.5703 27.1797 40.6836 32.248 41.3672 36.9941C41.9141 34.2793 42.627 31.1641 43.5059 27.6484L50.2441 0.0507812H55.957L44.1797 43H38.7012L29.6484 10.2754C28.8867 7.54102 28.4375 5.86133 28.3008 5.23633C27.8516 7.20898 27.4316 8.88867 27.041 10.2754L17.9297 43H12.1289Z" fill="black"/>
<path d="M59.4434 43V11.8867H64.1895V16.6035C65.4004 14.3965 66.5137 12.9414 67.5293 12.2383C68.5645 11.5352 69.6973 11.1836 70.9277 11.1836C72.7051 11.1836 74.5117 11.75 76.3477 12.8828L74.5312 17.7754C73.2422 17.0137 71.9531 16.6328 70.6641 16.6328C69.5117 16.6328 68.4766 16.9844 67.5586 17.6875C66.6406 18.3711 65.9863 19.3281 65.5957 20.5586C65.0098 22.4336 64.7168 24.4844 64.7168 26.7109V43H59.4434Z" fill="black"/>
<path d="M79.5117 6.11523V0.0507812H84.7852V6.11523H79.5117ZM79.5117 43V11.8867H84.7852V43H79.5117Z" fill="black"/>
<path d="M104.355 38.2832L105.117 42.9414C103.633 43.2539 102.305 43.4102 101.133 43.4102C99.2188 43.4102 97.7344 43.1074 96.6797 42.502C95.625 41.8965 94.8828 41.1055 94.4531 40.1289C94.0234 39.1328 93.8086 37.0527 93.8086 33.8887V15.9883H89.9414V11.8867H93.8086V4.18164L99.0527 1.01758V11.8867H104.355V15.9883H99.0527V34.1816C99.0527 35.6855 99.1406 36.6523 99.3164 37.082C99.5117 37.5117 99.8145 37.8535 100.225 38.1074C100.654 38.3613 101.26 38.4883 102.041 38.4883C102.627 38.4883 103.398 38.4199 104.355 38.2832Z" fill="black"/>
<path d="M130.84 32.9805L136.289 33.6543C135.43 36.8379 133.838 39.3086 131.514 41.0664C129.189 42.8242 126.221 43.7031 122.607 43.7031C118.057 43.7031 114.443 42.3066 111.768 39.5137C109.111 36.7012 107.783 32.7656 107.783 27.707C107.783 22.4727 109.131 18.4102 111.826 15.5195C114.521 12.6289 118.018 11.1836 122.314 11.1836C126.475 11.1836 129.873 12.5996 132.51 15.4316C135.146 18.2637 136.465 22.248 136.465 27.3848C136.465 27.6973 136.455 28.166 136.436 28.791H113.232C113.428 32.209 114.395 34.8262 116.133 36.6426C117.871 38.459 120.039 39.3672 122.637 39.3672C124.57 39.3672 126.221 38.8594 127.588 37.8438C128.955 36.8281 130.039 35.207 130.84 32.9805ZM113.525 24.4551H130.898C130.664 21.8379 130 19.875 128.906 18.5664C127.227 16.5352 125.049 15.5195 122.373 15.5195C119.951 15.5195 117.91 16.3301 116.25 17.9512C114.609 19.5723 113.701 21.7402 113.525 24.4551Z" fill="black"/>
<path d="M171.797 0.0507812H177.48V24.8652C177.48 29.1816 176.992 32.6094 176.016 35.1484C175.039 37.6875 173.271 39.7578 170.713 41.3594C168.174 42.9414 164.834 43.7324 160.693 43.7324C156.67 43.7324 153.379 43.0391 150.82 41.6523C148.262 40.2656 146.436 38.2637 145.342 35.6465C144.248 33.0098 143.701 29.416 143.701 24.8652V0.0507812H149.385V24.8359C149.385 28.5664 149.727 31.3203 150.41 33.0977C151.113 34.8555 152.305 36.2129 153.984 37.1699C155.684 38.127 157.754 38.6055 160.195 38.6055C164.375 38.6055 167.354 37.6582 169.131 35.7637C170.908 33.8691 171.797 30.2266 171.797 24.8359V0.0507812Z" fill="black"/>
<path d="M187.061 43V0.0507812H206.104C209.932 0.0507812 212.842 0.441406 214.834 1.22266C216.826 1.98438 218.418 3.3418 219.609 5.29492C220.801 7.24805 221.396 9.40625 221.396 11.7695C221.396 14.8164 220.41 17.3848 218.438 19.4746C216.465 21.5645 213.418 22.8926 209.297 23.459C210.801 24.1816 211.943 24.8945 212.725 25.5977C214.385 27.1211 215.957 29.0254 217.441 31.3105L224.912 43H217.764L212.08 34.0645C210.42 31.4863 209.053 29.5137 207.979 28.1465C206.904 26.7793 205.938 25.8223 205.078 25.2754C204.238 24.7285 203.379 24.3477 202.5 24.1328C201.855 23.9961 200.801 23.9277 199.336 23.9277H192.744V43H187.061ZM192.744 19.0059H204.961C207.559 19.0059 209.59 18.7422 211.055 18.2148C212.52 17.668 213.633 16.8086 214.395 15.6367C215.156 14.4453 215.537 13.1562 215.537 11.7695C215.537 9.73828 214.795 8.06836 213.311 6.75977C211.846 5.45117 209.521 4.79688 206.338 4.79688H192.744V19.0059Z" fill="black"/>
<path d="M230.098 43V0.0507812H235.781V37.9316H256.934V43H230.098Z" fill="black"/>
</svg>
